<svg width="112" height="49" viewBox="0 0 112 49" fill="none" xmlns="http://www.w3.org/2000/svg">
<path d="M2.36969 48.232C1.82569 48.232 1.37769 48.056 1.02569 47.704C0.673689 47.384 0.497689 46.936 0.497689 46.36C0.497689 45.816 0.673689 45.368 1.02569 45.016C1.37769 44.664 1.82569 44.488 2.36969 44.488C4.57769 44.488 6.38569 43.784 7.79369 42.376C9.20169 40.968 9.90569 39.176 9.90569 37V12.616C9.90569 12.04 10.0657 11.592 10.3857 11.272C10.7377 10.92 11.1857 10.744 11.7297 10.744C12.2737 10.744 12.7217 10.92 13.0737 11.272C13.4257 11.592 13.6017 12.04 13.6017 12.616V37C13.6017 39.176 13.1217 41.112 12.1617 42.808C11.2017 44.504 9.87369 45.832 8.17769 46.792C6.48169 47.752 4.54569 48.232 2.36969 48.232ZM11.6817 5.752C10.9777 5.752 10.3697 5.496 9.85769 4.984C9.34569 4.472 9.08969 3.848 9.08969 3.112C9.08969 2.312 9.34569 1.688 9.85769 1.24C10.4017 0.759997 11.0257 0.519998 11.7297 0.519998C12.4017 0.519998 12.9937 0.759997 13.5057 1.24C14.0497 1.688 14.3217 2.312 14.3217 3.112C14.3217 3.848 14.0657 4.472 13.5537 4.984C13.0417 5.496 12.4177 5.752 11.6817 5.752ZM33.7212 37.288C31.4492 37.288 29.4172 36.824 27.6252 35.896C25.8332 34.936 24.4092 33.544 23.3532 31.72C22.3292 29.896 21.8172 27.672 21.8172 25.048V12.568C21.8172 12.056 21.9932 11.624 22.3452 11.272C22.6972 10.92 23.1292 10.744 23.6412 10.744C24.1852 10.744 24.6332 10.92 24.9852 11.272C25.3372 11.624 25.5132 12.056 25.5132 12.568V25.048C25.5132 27.992 26.3292 30.184 27.9612 31.624C29.5932 33.064 31.6412 33.784 34.1052 33.784C35.6732 33.784 37.0812 33.48 38.3292 32.872C39.6092 32.264 40.6172 31.432 41.3532 30.376C42.0892 29.32 42.4572 28.12 42.4572 26.776V12.568C42.4572 12.024 42.6172 11.592 42.9372 11.272C43.2892 10.92 43.7372 10.744 44.2812 10.744C44.8252 10.744 45.2732 10.92 45.6252 11.272C45.9772 11.592 46.1532 12.024 46.1532 12.568V35.128C46.1532 35.704 45.9772 36.168 45.6252 36.52C45.2732 36.84 44.8252 37 44.2812 37C43.7372 37 43.2892 36.84 42.9372 36.52C42.6172 36.168 42.4572 35.704 42.4572 35.128V33.496C41.4012 34.68 40.1212 35.608 38.6172 36.28C37.1132 36.952 35.4812 37.288 33.7212 37.288ZM55.9336 37C55.3576 37 54.8936 36.84 54.5416 36.52C54.2216 36.168 54.0616 35.72 54.0616 35.176V12.616C54.0616 12.04 54.2216 11.592 54.5416 11.272C54.8936 10.92 55.3576 10.744 55.9336 10.744C56.4776 10.744 56.9096 10.92 57.2296 11.272C57.5816 11.592 57.7576 12.04 57.7576 12.616V14.248C58.7816 13.064 60.0456 12.136 61.5496 11.464C63.0856 10.792 64.7336 10.456 66.4936 10.456C68.7656 10.456 70.7976 10.936 72.5896 11.896C74.3816 12.824 75.7896 14.2 76.8136 16.024C77.8696 17.848 78.3976 20.072 78.3976 22.696V35.176C78.3976 35.688 78.2216 36.12 77.8696 36.472C77.5176 36.824 77.0856 37 76.5736 37C76.0296 37 75.5816 36.824 75.2296 36.472C74.8776 36.12 74.7016 35.688 74.7016 35.176V22.696C74.7016 19.72 73.8696 17.528 72.2056 16.12C70.5736 14.68 68.5416 13.96 66.1096 13.96C64.5416 13.96 63.1176 14.264 61.8376 14.872C60.5896 15.48 59.5976 16.312 58.8616 17.368C58.1256 18.424 57.7576 19.624 57.7576 20.968V35.176C57.7576 35.72 57.5816 36.168 57.2296 36.52C56.9096 36.84 56.4776 37 55.9336 37ZM97.7779 37.24C95.2179 37.24 92.9299 36.664 90.9139 35.512C88.8979 34.36 87.3139 32.776 86.1619 30.76C85.0099 28.744 84.4339 26.456 84.4339 23.896C84.4339 21.304 85.0099 19 86.1619 16.984C87.3139 14.968 88.8979 13.384 90.9139 12.232C92.9299 11.08 95.2179 10.504 97.7779 10.504C100.338 10.504 102.61 11.08 104.594 12.232C106.61 13.384 108.194 14.968 109.346 16.984C110.498 19 111.09 21.304 111.122 23.896C111.122 26.456 110.53 28.744 109.346 30.76C108.194 32.776 106.61 34.36 104.594 35.512C102.61 36.664 100.338 37.24 97.7779 37.24ZM97.7779 33.88C99.6339 33.88 101.298 33.448 102.77 32.584C104.242 31.72 105.394 30.536 106.226 29.032C107.058 27.528 107.474 25.816 107.474 23.896C107.474 21.976 107.058 20.264 106.226 18.76C105.394 17.224 104.242 16.024 102.77 15.16C101.298 14.296 99.6339 13.864 97.7779 13.864C95.9219 13.864 94.2579 14.296 92.7859 15.16C91.3139 16.024 90.1459 17.224 89.2819 18.76C88.4499 20.264 88.0339 21.976 88.0339 23.896C88.0339 25.816 88.4499 27.528 89.2819 29.032C90.1459 30.536 91.3139 31.72 92.7859 32.584C94.2579 33.448 95.9219 33.88 97.7779 33.88Z" fill="white"/>
</svg>
